<?xml version="1.0" encoding="us-ascii" standalone="no"?><svg xmlns="http://www.w3.org/2000/svg" xmlns:xlink="http://www.w3.org/1999/xlink" contentStyleType="text/css" height="938.4px" preserveAspectRatio="none" style="width:1438px;height:938px;background:#FFFFFF;" version="1.1" viewBox="0 0 1438 938" width="1438.2px" zoomAndPan="magnify"><defs/><g><!--cluster Core--><g id="cluster_Core"><path d="M1185.9,358.2082 L1206.9,358.2082 A2.25,2.25 0 0 1 1208.4,359.7082 L1212.6,372.9809 L1432.5,372.9809 A1.5,1.5 0 0 1 1434,374.4809 L1434,932.7082 A1.5,1.5 0 0 1 1432.5,934.2082 L1185.9,934.2082 A1.5,1.5 0 0 1 1184.4,932.7082 L1184.4,359.7082 A1.5,1.5 0 0 1 1185.9,358.2082 " fill="#DDDDDD" style="stroke:#000000;stroke-width:0.8999999999999999;"/><line style="stroke:#000000;stroke-width:0.8999999999999999;" x1="1184.4" x2="1212.6" y1="372.9809" y2="372.9809"/><text fill="#000000" font-family="sans-serif" font-size="8.4" font-weight="bold" lengthAdjust="spacing" textLength="20.4" x="1186.8" y="368.4727">Core</text></g><!--cluster Blazor--><g id="cluster_Blazor"><path d="M473.7,237.0082 L500.7,237.0082 A2.25,2.25 0 0 1 502.2,238.5082 L506.4,251.7809 L1168.5,251.7809 A1.5,1.5 0 0 1 1170,253.2809 L1170,513.0082 A1.5,1.5 0 0 1 1168.5,514.5082 L473.7,514.5082 A1.5,1.5 0 0 1 472.2,513.0082 L472.2,238.5082 A1.5,1.5 0 0 1 473.7,237.0082 " fill="#DDDDDD" style="stroke:#000000;stroke-width:0.8999999999999999;"/><line style="stroke:#000000;stroke-width:0.8999999999999999;" x1="472.2" x2="506.4" y1="251.7809" y2="251.7809"/><text fill="#000000" font-family="sans-serif" font-size="8.4" font-weight="bold" lengthAdjust="spacing" textLength="26.4" x="474.6" y="247.2727">Blazor</text></g><!--cluster BlazorTest--><g id="cluster_BlazorTest"><path d="M5.1,3.6082 L50.1,3.6082 A2.25,2.25 0 0 1 51.6,5.1082 L55.8,18.3809 L456.3,18.3809 A1.5,1.5 0 0 1 457.8,19.8809 L457.8,321.6082 A1.5,1.5 0 0 1 456.3,323.1082 L5.1,323.1082 A1.5,1.5 0 0 1 3.6,321.6082 L3.6,5.1082 A1.5,1.5 0 0 1 5.1,3.6082 " fill="#DDDDDD" style="stroke:#000000;stroke-width:0.8999999999999999;"/><line style="stroke:#000000;stroke-width:0.8999999999999999;" x1="3.6" x2="55.8" y1="18.3809" y2="18.3809"/><text fill="#000000" font-family="sans-serif" font-size="8.4" font-weight="bold" lengthAdjust="spacing" textLength="44.4" x="6" y="13.8727">BlazorTest</text></g><g id="elem_JMCore"><rect fill="#F1F1F1" height="85.4086" style="stroke:#181818;stroke-width:0.3;" width="218.4" x="1197" y="780.0082"/><text fill="#000000" font-family="sans-serif" font-size="8.4" lengthAdjust="spacing" textLength="28.8" x="1291.8" y="790.2727">JMCore</text><line style="stroke:#181818;stroke-width:0.3;" x1="1197.6" x2="1414.8" y1="793.5809" y2="793.5809"/><text fill="#000000" font-family="sans-serif" font-size="8.4" lengthAdjust="spacing" textLength="58.2" x="1200.6" y="805.0453">MediatR-12.0.1</text><text fill="#000000" font-family="sans-serif" font-size="8.4" lengthAdjust="spacing" textLength="211.2" x="1200.6" y="816.218">Microsoft.AspNetCore.Components.Authorization-6.0.16</text><text fill="#000000" font-family="sans-serif" font-size="8.4" lengthAdjust="spacing" textLength="165.6" x="1200.6" y="827.3906">Microsoft.Extensions.Caching.Memory-6.0.1</text><text fill="#000000" font-family="sans-serif" font-size="8.4" lengthAdjust="spacing" textLength="151.2" x="1200.6" y="838.5633">Microsoft.Extensions.Localization-6.0.16</text><text fill="#000000" font-family="sans-serif" font-size="8.4" lengthAdjust="spacing" textLength="181.8" x="1200.6" y="849.7359">Microsoft.Extensions.Logging.Abstractions-6.0.3</text><text fill="#000000" font-family="sans-serif" font-size="8.4" lengthAdjust="spacing" textLength="88.2" x="1200.6" y="860.9086">Newtonsoft.Json-13.0.1</text></g><g id="elem_JMCore_Resources"><rect fill="#F1F1F1" height="23.1727" style="stroke:#181818;stroke-width:0.3;" width="82.8" x="1264.8" y="901.2082"/><text fill="#000000" font-family="sans-serif" font-size="8.4" lengthAdjust="spacing" textLength="74.4" x="1269" y="911.4727">JMCore_Resources</text><line style="stroke:#181818;stroke-width:0.3;" x1="1265.4" x2="1347" y1="914.7809" y2="914.7809"/></g><g id="elem_JMCore_Server"><rect fill="#F1F1F1" height="130.0992" style="stroke:#181818;stroke-width:0.3;" width="229.8" x="1194.3" y="613.8082"/><text fill="#000000" font-family="sans-serif" font-size="8.4" lengthAdjust="spacing" textLength="58.8" x="1279.8" y="624.0727">JMCore_Server</text><line style="stroke:#181818;stroke-width:0.3;" x1="1194.9" x2="1423.5" y1="627.3809" y2="627.3809"/><text fill="#000000" font-family="sans-serif" font-size="8.4" lengthAdjust="spacing" textLength="60.6" x="1197.9" y="638.8453">Mailjet.Api-3.0.0</text><text fill="#000000" font-family="sans-serif" font-size="8.4" lengthAdjust="spacing" textLength="219.6" x="1197.9" y="650.018">MediatR.Extensions.Microsoft.DependencyInjection-11.0.0</text><text fill="#000000" font-family="sans-serif" font-size="8.4" lengthAdjust="spacing" textLength="222.6" x="1197.9" y="661.1906">Microsoft.AspNetCore.Identity.EntityFrameworkCore-6.0.16</text><text fill="#000000" font-family="sans-serif" font-size="8.4" lengthAdjust="spacing" textLength="148.2" x="1197.9" y="672.3633">Microsoft.AspNetCore.Identity.UI-6.0.16</text><text fill="#000000" font-family="sans-serif" font-size="8.4" lengthAdjust="spacing" textLength="171" x="1197.9" y="683.5359">Microsoft.AspNetCore.Mvc.Abstractions-2.2.0</text><text fill="#000000" font-family="sans-serif" font-size="8.4" lengthAdjust="spacing" textLength="145.2" x="1197.9" y="694.7086">Microsoft.EntityFrameworkCore-6.0.16</text><text fill="#000000" font-family="sans-serif" font-size="8.4" lengthAdjust="spacing" textLength="184.8" x="1197.9" y="705.8813">Microsoft.EntityFrameworkCore.SqlServer-6.0.16</text><text fill="#000000" font-family="sans-serif" font-size="8.4" lengthAdjust="spacing" textLength="88.2" x="1197.9" y="717.0539">Newtonsoft.Json-13.0.1</text><text fill="#000000" font-family="sans-serif" font-size="8.4" lengthAdjust="spacing" textLength="106.2" x="1197.9" y="728.2266">System.Data.SqlClient-4.8.5</text><text fill="#000000" font-family="sans-serif" font-size="8.4" lengthAdjust="spacing" textLength="151.2" x="1197.9" y="739.3992">System.IdentityModel.Tokens.Jwt-6.25.0</text></g><g id="elem_JMCore_Tests"><rect fill="#F1F1F1" height="197.1352" style="stroke:#181818;stroke-width:0.3;" width="197.4" x="1202.1" y="380.4082"/><text fill="#000000" font-family="sans-serif" font-size="8.4" lengthAdjust="spacing" textLength="54.6" x="1273.5" y="390.6727">JMCore_Tests</text><line style="stroke:#181818;stroke-width:0.3;" x1="1202.7" x2="1398.9" y1="393.9809" y2="393.9809"/><text fill="#000000" font-family="sans-serif" font-size="8.4" lengthAdjust="spacing" textLength="90.6" x="1205.7" y="405.4453">FluentAssertions-6.10.0</text><text fill="#000000" font-family="sans-serif" font-size="8.4" lengthAdjust="spacing" textLength="121.8" x="1205.7" y="416.618">Microsoft.AspNetCore.Http-2.2.2</text><text fill="#000000" font-family="sans-serif" font-size="8.4" lengthAdjust="spacing" textLength="151.2" x="1205.7" y="427.7906">Microsoft.AspNetCore.Localization-2.2.0</text><text fill="#000000" font-family="sans-serif" font-size="8.4" lengthAdjust="spacing" textLength="132.6" x="1205.7" y="438.9633">Microsoft.Extensions.Logging-6.0.0</text><text fill="#000000" font-family="sans-serif" font-size="8.4" lengthAdjust="spacing" textLength="115.8" x="1205.7" y="450.1359">Microsoft.NET.Test.Sdk-17.3.2</text><text fill="#000000" font-family="sans-serif" font-size="8.4" lengthAdjust="spacing" textLength="88.2" x="1205.7" y="461.3086">Newtonsoft.Json-13.0.1</text><text fill="#000000" font-family="sans-serif" font-size="8.4" lengthAdjust="spacing" textLength="65.4" x="1205.7" y="472.4813">NSubstitute-4.4.0</text><text fill="#000000" font-family="sans-serif" font-size="8.4" lengthAdjust="spacing" textLength="145.2" x="1205.7" y="483.6539">NSubstitute.Analyzers.CSharp-1.0.15&gt;</text><text fill="#000000" font-family="sans-serif" font-size="8.4" lengthAdjust="spacing" textLength="53.4" x="1205.7" y="494.8266">Serilog-2.12.0</text><text fill="#000000" font-family="sans-serif" font-size="8.4" lengthAdjust="spacing" textLength="124.8" x="1205.7" y="505.9992">Serilog.Extensions.Logging-3.1.0</text><text fill="#000000" font-family="sans-serif" font-size="8.4" lengthAdjust="spacing" textLength="135" x="1205.7" y="517.1719">Serilog.Settings.Configuration-3.4.0</text><text fill="#000000" font-family="sans-serif" font-size="8.4" lengthAdjust="spacing" textLength="87.6" x="1205.7" y="528.3445">Serilog.Sinks.File-5.0.0</text><text fill="#000000" font-family="sans-serif" font-size="8.4" lengthAdjust="spacing" textLength="190.2" x="1205.7" y="539.5172">System.Configuration.ConfigurationManager-6.0.1</text><text fill="#000000" font-family="sans-serif" font-size="8.4" lengthAdjust="spacing" textLength="39.6" x="1205.7" y="550.6898">xunit-2.4.2</text><text fill="#000000" font-family="sans-serif" font-size="8.4" lengthAdjust="spacing" textLength="114" x="1205.7" y="561.8625">xunit.runner.visualstudio-2.4.5</text><text fill="#000000" font-family="sans-serif" font-size="8.4" lengthAdjust="spacing" textLength="86.4" x="1205.7" y="573.0352">coverlet.collector-3.2.0</text></g><g id="elem_JMCoreTest_Blazor_BUnit"><rect fill="#F1F1F1" height="40.718" style="stroke:#181818;stroke-width:0.3;" width="106.8" x="1053.6" y="281.4082"/><text fill="#000000" font-family="sans-serif" font-size="8.4" lengthAdjust="spacing" textLength="98.4" x="1057.8" y="291.6727">JMCoreTest_Blazor_BUnit</text><line style="stroke:#181818;stroke-width:0.3;" x1="1054.2" x2="1159.8" y1="294.9809" y2="294.9809"/><text fill="#000000" font-family="sans-serif" font-size="8.4" lengthAdjust="spacing" textLength="45.6" x="1057.2" y="306.4453">bunit-1.18.4</text><text fill="#000000" font-family="sans-serif" font-size="8.4" lengthAdjust="spacing" textLength="88.2" x="1057.2" y="317.618">JustMock-2023.1.117.1</text></g><g id="elem_JMCore_Blazor"><rect fill="#F1F1F1" height="51.8906" style="stroke:#181818;stroke-width:0.3;" width="158.4" x="813.6" y="453.3082"/><text fill="#000000" font-family="sans-serif" font-size="8.4" lengthAdjust="spacing" textLength="57" x="864.3" y="463.5727">JMCore_Blazor</text><line style="stroke:#181818;stroke-width:0.3;" x1="814.2" x2="971.4" y1="466.8809" y2="466.8809"/><text fill="#000000" font-family="sans-serif" font-size="8.4" lengthAdjust="spacing" textLength="108" x="817.2" y="478.3453">Blazored.LocalStorage-4.3.0</text><text fill="#000000" font-family="sans-serif" font-size="8.4" lengthAdjust="spacing" textLength="151.2" x="817.2" y="489.518">Microsoft.AspNetCore.Localization-2.2.0</text><text fill="#000000" font-family="sans-serif" font-size="8.4" lengthAdjust="spacing" textLength="115.2" x="817.2" y="500.6906">Telerik.UI.for.Blazor.Trial-4.1.0</text></g><g id="elem_JMCore_Blazor_Client"><rect fill="#F1F1F1" height="63.0633" style="stroke:#181818;stroke-width:0.3;" width="279" x="753.3" y="270.3082"/><text fill="#000000" font-family="sans-serif" font-size="8.4" lengthAdjust="spacing" textLength="83.4" x="851.1" y="280.5727">JMCore_Blazor_Client</text><line style="stroke:#181818;stroke-width:0.3;" x1="753.9" x2="1031.7" y1="283.8809" y2="283.8809"/><text fill="#000000" font-family="sans-serif" font-size="8.4" lengthAdjust="spacing" textLength="215.4" x="756.9" y="295.3453">Microsoft.AspNetCore.Components.WebAssembly-6.0.16</text><text fill="#000000" font-family="sans-serif" font-size="8.4" lengthAdjust="spacing" textLength="258" x="756.9" y="306.518">Microsoft.AspNetCore.Components.WebAssembly.DevServer-6.0.16</text><text fill="#000000" font-family="sans-serif" font-size="8.4" lengthAdjust="spacing" textLength="271.8" x="756.9" y="317.6906">Microsoft.AspNetCore.Components.WebAssembly.Authentication-6.0.16</text><text fill="#000000" font-family="sans-serif" font-size="8.4" lengthAdjust="spacing" textLength="117" x="756.9" y="328.8633">Microsoft.Extensions.Http-6.0.0</text></g><g id="elem_JMCore_Blazor_Server"><rect fill="#F1F1F1" height="85.4086" style="stroke:#181818;stroke-width:0.3;" width="250.2" x="482.1" y="259.2082"/><text fill="#000000" font-family="sans-serif" font-size="8.4" lengthAdjust="spacing" textLength="87" x="563.7" y="269.4727">JMCore_Blazor_Server</text><line style="stroke:#181818;stroke-width:0.3;" x1="482.7" x2="731.7" y1="272.7809" y2="272.7809"/><text fill="#000000" font-family="sans-serif" font-size="8.4" lengthAdjust="spacing" textLength="70.8" x="485.7" y="284.2453">Duende.BFF-1.2.3</text><text fill="#000000" font-family="sans-serif" font-size="8.4" lengthAdjust="spacing" textLength="227.4" x="485.7" y="295.418">Microsoft.AspNetCore.Authentication.OpenIdConnect-6.0.16</text><text fill="#000000" font-family="sans-serif" font-size="8.4" lengthAdjust="spacing" textLength="243" x="485.7" y="306.5906">Microsoft.AspNetCore.Components.WebAssembly.Server-6.0.16</text><text fill="#000000" font-family="sans-serif" font-size="8.4" lengthAdjust="spacing" textLength="239.4" x="485.7" y="317.7633">Microsoft.AspNetCore.Diagnostics.EntityFrameworkCore-6.0.16</text><text fill="#000000" font-family="sans-serif" font-size="8.4" lengthAdjust="spacing" textLength="187.8" x="485.7" y="328.9359">Microsoft.AspNetCore.Mvc.NewtonsoftJson-6.0.16</text><text fill="#000000" font-family="sans-serif" font-size="8.4" lengthAdjust="spacing" textLength="202.2" x="485.7" y="340.1086">Microsoft.Extensions.Configuration.Abstractions-6.0.0</text></g><g id="elem_JMCoreTest_Blazor_Shared"><rect fill="#F1F1F1" height="23.1727" style="stroke:#181818;stroke-width:0.3;" width="114.6" x="243.9" y="290.1082"/><text fill="#000000" font-family="sans-serif" font-size="8.4" lengthAdjust="spacing" textLength="106.2" x="248.1" y="300.3727">JMCoreTest_Blazor_Shared</text><line style="stroke:#181818;stroke-width:0.3;" x1="244.5" x2="357.9" y1="303.6809" y2="303.6809"/></g><g id="elem_JMCoreTest_Blazor_RazorShared"><rect fill="#F1F1F1" height="40.718" style="stroke:#181818;stroke-width:0.3;" width="193.2" x="204.6" y="182.4082"/><text fill="#000000" font-family="sans-serif" font-size="8.4" lengthAdjust="spacing" textLength="128.4" x="237" y="192.6727">JMCoreTest_Blazor_RazorShared</text><line style="stroke:#181818;stroke-width:0.3;" x1="205.2" x2="397.2" y1="195.9809" y2="195.9809"/><text fill="#000000" font-family="sans-serif" font-size="8.4" lengthAdjust="spacing" textLength="165" x="208.2" y="207.4453">Microsoft.AspNetCore.SignalR.Client-6.0.16</text><text fill="#000000" font-family="sans-serif" font-size="8.4" lengthAdjust="spacing" textLength="186" x="208.2" y="218.618">Microsoft.AspNetCore.SignalR.Client.Core-6.0.16</text></g><g id="elem_JMCoreTest_Blazor_ServerWASM"><rect fill="#F1F1F1" height="23.1727" style="stroke:#181818;stroke-width:0.3;" width="137.4" x="126.3" y="25.8082"/><text fill="#000000" font-family="sans-serif" font-size="8.4" lengthAdjust="spacing" textLength="129" x="130.5" y="36.0727">JMCoreTest_Blazor_ServerWASM</text><line style="stroke:#181818;stroke-width:0.3;" x1="126.9" x2="263.1" y1="39.3809" y2="39.3809"/></g><g id="elem_JMCoreTest_Blazor_Client"><rect fill="#F1F1F1" height="61.4672" style="stroke:#181818;stroke-width:0.3;" width="279" x="168.9" y="85.2082"/><text fill="#000000" font-family="sans-serif" font-size="7.2" font-style="italic" lengthAdjust="spacing" textLength="140.4" x="238.2" y="92.9777">&#171;Microsoft.NET.Sdk.BlazorWebAssembly&#187;</text><text fill="#000000" font-family="sans-serif" font-size="8.4" lengthAdjust="spacing" textLength="100.2" x="258.3" y="105.0492">JMCoreTest_Blazor_Client</text><line style="stroke:#181818;stroke-width:0.3;" x1="169.5" x2="447.3" y1="108.3574" y2="108.3574"/><text fill="#000000" font-family="sans-serif" font-size="8.4" lengthAdjust="spacing" textLength="215.4" x="172.5" y="119.8219">Microsoft.AspNetCore.Components.WebAssembly-6.0.16</text><text fill="#000000" font-family="sans-serif" font-size="8.4" lengthAdjust="spacing" textLength="258" x="172.5" y="130.9945">Microsoft.AspNetCore.Components.WebAssembly.DevServer-6.0.16</text><text fill="#000000" font-family="sans-serif" font-size="8.4" lengthAdjust="spacing" textLength="271.8" x="172.5" y="142.1672">Microsoft.AspNetCore.Components.WebAssembly.Authentication-6.0.16</text></g><g id="elem_JMCoreTest_Blazor_ServerShared"><rect fill="#F1F1F1" height="23.1727" style="stroke:#181818;stroke-width:0.3;" width="139.8" x="29.1" y="191.1082"/><text fill="#000000" font-family="sans-serif" font-size="8.4" lengthAdjust="spacing" textLength="131.4" x="33.3" y="201.3727">JMCoreTest_Blazor_ServerShared</text><line style="stroke:#181818;stroke-width:0.3;" x1="29.7" x2="168.3" y1="204.6809" y2="204.6809"/></g><g id="elem_JMCoreTest_Blazor_Server"><rect fill="#F1F1F1" height="23.1727" style="stroke:#181818;stroke-width:0.3;" width="112.2" x="35.7" y="104.1082"/><text fill="#000000" font-family="sans-serif" font-size="8.4" lengthAdjust="spacing" textLength="103.8" x="39.9" y="114.3727">JMCoreTest_Blazor_Server</text><line style="stroke:#181818;stroke-width:0.3;" x1="36.3" x2="147.3" y1="117.6809" y2="117.6809"/></g><!--link JMCore to JMCore_Resources--><g id="link_JMCore_JMCore_Resources"><path codeLine="48" d="M1306.2,865.4122 C1306.2,877.1062 1306.2,889.0222 1306.2,897.9142 " fill="none" id="JMCore-to-JMCore_Resources" style="stroke:#181818;stroke-width:0.6;"/><polygon fill="#181818" points="1306.2,901.0462,1308.6,895.6462,1306.2,898.0462,1303.8,895.6462,1306.2,901.0462" style="stroke:#181818;stroke-width:0.6;"/></g><!--link JMCore_Server to JMCore--><g id="link_JMCore_Server_JMCore"><path codeLine="49" d="M1307.838,744.0862 C1307.61,755.0962 1307.37,766.3222 1307.154,776.7022 " fill="none" id="JMCore_Server-to-JMCore" style="stroke:#181818;stroke-width:0.6;"/><polygon fill="#181818" points="1307.088,779.8942,1309.5955,774.5433,1307.148,776.8948,1304.7965,774.4473,1307.088,779.8942" style="stroke:#181818;stroke-width:0.6;"/></g><!--link JMCore_Tests to JMCore_Server--><g id="link_JMCore_Tests_JMCore_Server"><path codeLine="50" d="M1304.952,577.8442 C1305.414,588.8242 1305.882,599.8282 1306.326,610.3102 " fill="none" id="JMCore_Tests-to-JMCore_Server" style="stroke:#181818;stroke-width:0.6;"/><polygon fill="#181818" points="1306.458,613.5442,1308.6246,608.0464,1306.3295,610.547,1303.829,608.2519,1306.458,613.5442" style="stroke:#181818;stroke-width:0.6;"/></g><!--link JMCore_Blazor_Client to JMCore_Blazor--><g id="link_JMCore_Blazor_Client_JMCore_Blazor"><path codeLine="30" d="M892.8,333.4882 C892.8,366.4882 892.8,418.1962 892.8,450.1342 " fill="none" id="JMCore_Blazor_Client-to-JMCore_Blazor" style="stroke:#181818;stroke-width:0.6;"/><polygon fill="#181818" points="892.8,453.1582,895.2,447.7582,892.8,450.1582,890.4,447.7582,892.8,453.1582" style="stroke:#181818;stroke-width:0.6;"/></g><!--link JMCore_Blazor_Server to JMCore_Blazor--><g id="link_JMCore_Blazor_Server_JMCore_Blazor"><path codeLine="31" d="M675.426,344.4742 C729.3,377.6962 802.86,423.0502 849.09,451.5562 " fill="none" id="JMCore_Blazor_Server-to-JMCore_Blazor" style="stroke:#181818;stroke-width:0.6;"/><polygon fill="#181818" points="851.82,453.2422,848.4862,448.3631,849.2674,451.6661,845.9644,452.4473,851.82,453.2422" style="stroke:#181818;stroke-width:0.6;"/></g><!--link JMCoreTest_Blazor_BUnit to JMCore_Blazor--><g id="link_JMCoreTest_Blazor_BUnit_JMCore_Blazor"><path codeLine="32" d="M1082.844,322.2682 C1044.492,353.7982 969.582,415.3822 926.142,451.0942 " fill="none" id="JMCoreTest_Blazor_BUnit-to-JMCore_Blazor" style="stroke:#181818;stroke-width:0.6;"/><polygon fill="#181818" points="923.586,453.2002,929.2814,451.6245,925.9033,451.2949,926.2328,447.9168,923.586,453.2002" style="stroke:#181818;stroke-width:0.6;"/></g><!--link JMCoreTest_Blazor_BUnit to JMCore_Tests--><g id="link_JMCoreTest_Blazor_BUnit_JMCore_Tests"><path codeLine="33" d="M1132.53,322.2922 C1144.146,331.5382 1157.958,342.8062 1170,353.4082 C1179.756,362.0002 1189.776,371.0782 1199.718,380.2642 " fill="none" id="JMCoreTest_Blazor_BUnit-to-JMCore_Tests" style="stroke:#181818;stroke-width:0.6;"/><polygon fill="#181818" points="1201.974,382.3522,1199.6427,376.9222,1199.7729,380.3138,1196.3813,380.444,1201.974,382.3522" style="stroke:#181818;stroke-width:0.6;"/></g><!--link JMCoreTest_Blazor_Server to JMCoreTest_Blazor_RazorShared--><g id="link_JMCoreTest_Blazor_Server_JMCoreTest_Blazor_RazorShared"><path codeLine="29" d="M115.716,127.5322 C128.34,133.3222 144.138,140.4142 158.4,146.4082 C186.99,158.4262 219.132,171.0622 245.67,181.2622 " fill="none" id="JMCoreTest_Blazor_Server-to-JMCoreTest_Blazor_RazorShared" style="stroke:#181818;stroke-width:0.6;"/><polygon fill="#181818" points="248.55,182.3662,244.3672,178.192,245.7489,181.2921,242.6487,182.6738,248.55,182.3662" style="stroke:#181818;stroke-width:0.6;"/></g><!--link JMCoreTest_Blazor_Server to JMCoreTest_Blazor_ServerShared--><g id="link_JMCoreTest_Blazor_Server_JMCoreTest_Blazor_ServerShared"><path codeLine="30" d="M92.742,127.6222 C94.038,143.1022 96.384,171.0202 97.806,187.9582 " fill="none" id="JMCoreTest_Blazor_Server-to-JMCoreTest_Blazor_ServerShared" style="stroke:#181818;stroke-width:0.6;"/><polygon fill="#181818" points="98.058,190.9882,100.0026,185.408,97.8096,187.9985,95.2191,185.8055,98.058,190.9882" style="stroke:#181818;stroke-width:0.6;"/></g><!--link JMCoreTest_Blazor_ServerWASM to JMCoreTest_Blazor_Client--><g id="link_JMCoreTest_Blazor_ServerWASM_JMCoreTest_Blazor_Client"><path codeLine="31" d="M211.488,49.3222 C224.664,58.2742 243.804,71.2882 261.6,83.3902 " fill="none" id="JMCoreTest_Blazor_ServerWASM-to-JMCoreTest_Blazor_Client" style="stroke:#181818;stroke-width:0.6;"/><polygon fill="#181818" points="264.216,85.1662,261.0978,80.1466,261.7344,83.4804,258.4006,84.1171,264.216,85.1662" style="stroke:#181818;stroke-width:0.6;"/></g><!--link JMCoreTest_Blazor_ServerWASM to JMCoreTest_Blazor_ServerShared--><g id="link_JMCoreTest_Blazor_ServerWASM_JMCoreTest_Blazor_ServerShared"><path codeLine="32" d="M126.12,48.5782 C84.756,56.4382 37.77,68.6782 25.2,85.2082 C8.736,106.8622 13.086,122.0542 25.2,146.4082 C34.842,165.7942 54.792,180.2302 71.52,189.5602 " fill="none" id="JMCoreTest_Blazor_ServerWASM-to-JMCoreTest_Blazor_ServerShared" style="stroke:#181818;stroke-width:0.6;"/><polygon fill="#181818" points="74.172,191.0182,70.587,186.3205,71.5403,189.578,68.2828,190.5313,74.172,191.0182" style="stroke:#181818;stroke-width:0.6;"/></g><!--link JMCoreTest_Blazor_Client to JMCoreTest_Blazor_RazorShared--><g id="link_JMCoreTest_Blazor_Client_JMCoreTest_Blazor_RazorShared"><path codeLine="33" d="M305.88,146.4142 C304.98,157.1902 303.972,169.1602 303.126,179.2402 " fill="none" id="JMCoreTest_Blazor_Client-to-JMCoreTest_Blazor_RazorShared" style="stroke:#181818;stroke-width:0.6;"/><polygon fill="#181818" points="302.868,182.3062,305.7069,177.1235,303.1164,179.3165,300.9234,176.726,302.868,182.3062" style="stroke:#181818;stroke-width:0.6;"/></g><!--link JMCoreTest_Blazor_RazorShared to JMCoreTest_Blazor_Shared--><g id="link_JMCoreTest_Blazor_RazorShared_JMCoreTest_Blazor_Shared"><path codeLine="34" d="M301.2,223.4362 C301.2,242.2942 301.2,270.0862 301.2,286.8382 " fill="none" id="JMCoreTest_Blazor_RazorShared-to-JMCoreTest_Blazor_Shared" style="stroke:#181818;stroke-width:0.6;"/><polygon fill="#181818" points="301.2,290.0362,303.6,284.6362,301.2,287.0362,298.8,284.6362,301.2,290.0362" style="stroke:#181818;stroke-width:0.6;"/></g><!--link JMCoreTest_Blazor_ServerShared to JMCoreTest_Blazor_Shared--><g id="link_JMCoreTest_Blazor_ServerShared_JMCoreTest_Blazor_Shared"><path codeLine="35" d="M121.998,214.5322 C160.008,232.9162 235.668,269.5102 275.424,288.7402 " fill="none" id="JMCoreTest_Blazor_ServerShared-to-JMCoreTest_Blazor_Shared" style="stroke:#181818;stroke-width:0.6;"/><polygon fill="#181818" points="278.226,290.0962,274.4172,285.5781,275.5275,288.7855,272.3201,289.8957,278.226,290.0962" style="stroke:#181818;stroke-width:0.6;"/></g><!--link JMCore_Blazor to JMCore--><g id="link_JMCore_Blazor_JMCore"><path codeLine="6" d="M917.598,504.9442 C966.306,553.8622 1078.86,663.8422 1183.8,744.0082 C1199.244,755.8042 1216.488,767.5762 1233.054,778.2622 " fill="none" id="JMCore_Blazor-to-JMCore" style="stroke:#181818;stroke-width:0.6;"/><polygon fill="#181818" points="1235.706,779.9662,1232.4538,775.0323,1233.18,778.3478,1229.8644,779.074,1235.706,779.9662" style="stroke:#181818;stroke-width:0.6;"/></g><!--link JMCore_Blazor_Server to JMCore_Server--><g id="link_JMCore_Blazor_Server_JMCore_Server"><path codeLine="7" d="M732.324,342.4522 C735.84,343.1602 739.338,343.8202 742.8,344.4082 C769.104,348.8962 958.536,342.2962 982.8,353.4082 C1106.658,410.1262 1093.26,483.5362 1191.6,577.8082 C1203.324,589.0522 1216.074,600.5902 1228.71,611.6602 " fill="none" id="JMCore_Blazor_Server-to-JMCore_Server" style="stroke:#181818;stroke-width:0.6;"/><polygon fill="#181818" points="1231.068,613.7182,1228.573,608.3614,1228.806,611.7475,1225.4199,611.9806,1231.068,613.7182" style="stroke:#181818;stroke-width:0.6;"/></g><!--link JMCoreTest_Blazor_Client to JMCore_Blazor_Client--><g id="link_JMCoreTest_Blazor_Client_JMCore_Blazor_Client"><path codeLine="9" d="M444.756,146.4322 C531.276,167.0242 644.958,196.9522 742.8,232.2082 C771.684,242.6122 802.65,256.3882 828.906,268.8922 " fill="none" id="JMCoreTest_Blazor_Client-to-JMCore_Blazor_Client" style="stroke:#181818;stroke-width:0.6;"/><polygon fill="#181818" points="831.756,270.2542,827.9185,265.7605,829.0492,268.9607,825.8489,270.0915,831.756,270.2542" style="stroke:#181818;stroke-width:0.6;"/></g><!--link JMCoreTest_Blazor_Shared to JMCore_Blazor--><g id="link_JMCoreTest_Blazor_Shared_JMCore_Blazor"><path codeLine="10" d="M338.658,313.5562 C432.654,341.5402 680.292,415.2502 810.348,453.9622 " fill="none" id="JMCoreTest_Blazor_Shared-to-JMCore_Blazor" style="stroke:#181818;stroke-width:0.6;"/><polygon fill="#181818" points="813.396,454.8742,808.905,451.0335,810.5206,454.0184,807.5358,455.6341,813.396,454.8742" style="stroke:#181818;stroke-width:0.6;"/></g><!--link JMCoreTest_Blazor_ServerShared to JMCore_Blazor_Server--><g id="link_JMCoreTest_Blazor_ServerShared_JMCore_Blazor_Server"><path codeLine="11" d="M144.306,214.5202 C159.894,217.9042 177.522,221.2462 193.8,223.2082 C252.078,230.2342 400.692,218.6362 457.8,232.2082 C481.674,237.8842 506.346,247.5202 528.594,257.8162 " fill="none" id="JMCoreTest_Blazor_ServerShared-to-JMCore_Blazor_Server" style="stroke:#181818;stroke-width:0.6;"/><polygon fill="#181818" points="531.576,259.2082,527.6983,254.7491,528.8577,257.9391,525.6677,259.0984,531.576,259.2082" style="stroke:#181818;stroke-width:0.6;"/></g><!--SRC=[KyyeAIaejjBNByX9p2ifpStHIyxFrSzFoafDBj5DoKnCBqhCvLBCp4lEAKr9LT2BYV7oTSulIjKh02h58Xxlb9DObL-4IpeajRW4HGaNYZO5NLqx1OW8gaHyS6fHMIgoF5G4PW2ImV7EEPcfUIN8Qb4aiEW8paWiIat1r85DATXQN1fWhW80]--></g></svg>